<svg width="61" height="32" viewBox="0 0 61 32"  xmlns="http://www.w3.org/2000/svg">
<line y1="-1" x2="57.0004" y2="-1" transform="matrix(-0.999992 0.00392787 -0.00696469 -0.999976 57 15.3281)"  stroke-width="2"/>
<path d="M59.8888 17.4427C60.4341 17.3505 60.8013 16.835 60.7088 16.2913C60.6164 15.7476 60.0993 15.3816 59.554 15.4738L59.8888 17.4427ZM45.5779 31.8496L46.3374 29.3488L44.4203 28.7701L43.6608 31.2709L45.5779 31.8496ZM46.3374 29.3488C48.2234 23.1386 53.472 18.5272 59.8888 17.4427L59.554 15.4738C52.388 16.685 46.5266 21.8348 44.4203 28.7701L46.3374 29.3488Z" />
<path d="M59.8888 15.1179C60.4341 15.2101 60.8013 15.7255 60.7088 16.2692C60.6164 16.8129 60.0993 17.1789 59.554 17.0868L59.8888 15.1179ZM45.5779 0.710952L46.3374 3.21177L44.4203 3.79045L43.6608 1.28963L45.5779 0.710952ZM46.3374 3.21177C48.2234 9.42196 53.472 14.0333 59.8888 15.1179L59.554 17.0868C52.388 15.8755 46.5266 10.7258 44.4203 3.79045L46.3374 3.21177Z" />
</svg>
