<svg width="56" height="32" viewBox="0 0 56 32"  xmlns="http://www.w3.org/2000/svg">
<path d="M54.8889 17.4427C55.4343 17.3505 55.8014 16.835 55.7089 16.2913C55.6165 15.7476 55.0995 15.3816 54.5541 15.4738L54.8889 17.4427ZM40.578 31.8496L41.3375 29.3488L39.4204 28.7701L38.6609 31.2709L40.578 31.8496ZM41.3375 29.3488C43.2236 23.1386 48.4721 18.5272 54.8889 17.4427L54.5541 15.4738C47.3881 16.685 41.5267 21.8348 39.4204 28.7701L41.3375 29.3488Z" />
<path d="M54.8889 15.1179C55.4343 15.2101 55.8014 15.7255 55.7089 16.2692C55.6165 16.8129 55.0995 17.1789 54.5541 17.0868L54.8889 15.1179ZM40.578 0.710952L41.3375 3.21177L39.4204 3.79045L38.6609 1.28963L40.578 0.710952ZM41.3375 3.21177C43.2236 9.42196 48.4721 14.0333 54.8889 15.1179L54.5541 17.0868C47.3881 15.8755 41.5267 10.7258 39.4204 3.79045L41.3375 3.21177Z"/>
<rect y="16" width="52" height="1" />
</svg>
